<?xml version="1.0" encoding="utf-8"?>
<!-- Generator: Adobe Illustrator 20.1.0, SVG Export Plug-In . SVG Version: 6.00 Build 0)  -->
<svg version="1.1" id="Layer_1" xmlns="http://www.w3.org/2000/svg" xmlns:xlink="http://www.w3.org/1999/xlink" x="0px" y="0px"
	 viewBox="0 0 1920 1080" style="enable-background:new 0 0 1920 1080;" xml:space="preserve">
<style type="text/css">
	.st0{fill:#FFFFFF;}
</style>
<g>
	<path class="st0" d="M671.8,480.5c1.8-1.7,3.6-3.3,5.5-4.7c1.9-1.4,3.9-2.6,6-3.7s4.4-1.8,6.9-2.4s5.1-0.9,8-0.9
		c4.8,0,9,0.8,12.7,2.5c3.7,1.6,6.8,3.9,9.3,6.9c2.5,2.9,4.4,6.5,5.7,10.5c1.3,4.1,1.9,8.6,1.9,13.4V558h-23.4v-55.7
		c0-4.9-1.1-8.7-3.4-11.4c-2.3-2.7-5.6-4-10-4c-3.3,0-6.4,0.7-9.3,2.1c-2.9,1.4-5.6,3.4-8.2,6v63H650v-87.7h14.5
		c2.9,0,4.9,1.4,5.9,4.1L671.8,480.5z"/>
	<path class="st0" d="M748.8,482.5c5.2-4.6,10.9-8.1,17.1-10.4c6.2-2.3,13-3.4,20.2-3.4c5.2,0,9.9,0.8,14,2.6
		c4.1,1.7,7.6,4.1,10.5,7.1s5.1,6.6,6.6,10.8c1.5,4.2,2.3,8.8,2.3,13.8v55h-10.7c-2.2,0-3.9-0.3-5.1-0.9c-1.2-0.6-2.1-1.9-2.8-3.9
		l-1.9-5.6c-2.2,1.9-4.4,3.6-6.4,5.1c-2.1,1.5-4.2,2.7-6.4,3.7s-4.6,1.7-7.1,2.3c-2.5,0.5-5.3,0.8-8.5,0.8c-3.9,0-7.4-0.5-10.5-1.5
		c-3.2-1-5.9-2.5-8.2-4.5s-4.1-4.5-5.3-7.5s-1.9-6.5-1.9-10.4c0-3.2,0.8-6.5,2.5-9.7c1.6-3.2,4.5-6.2,8.5-8.8s9.3-4.8,16-6.5
		c6.7-1.7,15-2.7,25-2.9v-4.5c0-5.5-1.2-9.5-3.5-12.1s-5.7-3.9-10-3.9c-3.2,0-5.9,0.4-8.1,1.1c-2.2,0.8-4,1.6-5.7,2.5
		c-1.6,0.9-3.1,1.7-4.5,2.5s-3.1,1.1-4.9,1.1c-1.6,0-3-0.4-4.1-1.2c-1.1-0.8-2-1.8-2.8-2.9L748.8,482.5z M796.6,521.3
		c-5.7,0.3-10.5,0.8-14.3,1.5s-6.8,1.6-9.1,2.8c-2.2,1.1-3.8,2.4-4.8,3.9c-0.9,1.4-1.4,3-1.4,4.7c0,3.4,0.9,5.8,2.8,7.2
		c1.9,1.4,4.5,2.1,8,2.1c3.9,0,7.3-0.7,10.2-2.1c2.9-1.4,5.7-3.6,8.5-6.5L796.6,521.3L796.6,521.3z"/>
	<path class="st0" d="M932.1,558h-23.4v-70.8h-38.9V533c0,2.4,0.6,4.4,1.7,5.8c1.2,1.4,2.8,2.1,5,2.1c1.1,0,2.1-0.1,2.9-0.4
		c0.8-0.3,1.5-0.5,2-0.9c0.6-0.3,1.1-0.6,1.6-0.9c0.5-0.3,1-0.4,1.5-0.4c0.7,0,1.2,0.2,1.7,0.5s0.9,0.8,1.4,1.6l7.1,11.2
		c-3.2,2.6-6.9,4.5-11,5.8s-8.3,2-12.7,2c-4,0-7.5-0.6-10.5-1.7c-3.1-1.2-5.6-2.8-7.7-5c-2.1-2.2-3.7-4.8-4.8-7.8
		c-1.1-3.1-1.6-6.5-1.6-10.4v-47.3h-8.2c-1.2,0-2.3-0.4-3.2-1.2c-0.9-0.8-1.3-2-1.3-3.6v-9.2l14-2.6l4.8-22.7
		c0.6-2.6,2.4-3.8,5.2-3.8h12.2v26.7h62.2V558z M935.8,445.2c0,1.9-0.4,3.8-1.2,5.5s-1.9,3.2-3.2,4.5s-2.9,2.3-4.7,3.1
		c-1.8,0.8-3.7,1.1-5.7,1.1c-1.9,0-3.8-0.4-5.5-1.1c-1.7-0.8-3.2-1.8-4.5-3.1c-1.3-1.3-2.3-2.8-3.1-4.5s-1.1-3.6-1.1-5.5
		c0-2,0.4-3.8,1.1-5.6c0.8-1.7,1.8-3.2,3.1-4.5s2.8-2.3,4.5-3.1c1.7-0.8,3.6-1.1,5.5-1.1c2,0,4,0.4,5.7,1.1c1.8,0.8,3.3,1.8,4.7,3.1
		c1.3,1.3,2.4,2.8,3.2,4.5C935.4,441.4,935.8,443.3,935.8,445.2z"/>
	<path class="st0" d="M1037.2,470.3l-34.4,87.7h-21.3L947,470.3h19.5c1.7,0,3.1,0.4,4.3,1.2c1.1,0.8,1.9,1.8,2.4,3.1l14.7,43.4
		c1,2.9,1.8,5.8,2.6,8.6c0.7,2.8,1.4,5.6,2,8.5c0.6-2.8,1.3-5.7,2.1-8.5s1.7-5.7,2.7-8.6l15.2-43.4c0.4-1.2,1.2-2.3,2.3-3.1
		c1.1-0.8,2.5-1.2,4-1.2H1037.2z"/>
	<path class="st0" d="M1067.3,517.8c0.7,8.2,3.1,14.2,7,18s9.1,5.7,15.4,5.7c3.2,0,6-0.4,8.4-1.1s4.4-1.6,6.2-2.6
		c1.8-0.9,3.4-1.8,4.8-2.6s2.9-1.1,4.3-1.1c1.8,0,3.2,0.7,4.3,2l6.8,8.5c-2.5,2.9-5.2,5.3-8.2,7.2s-6.1,3.4-9.4,4.5
		s-6.5,1.9-9.8,2.3c-3.3,0.4-6.5,0.6-9.5,0.6c-6.1,0-11.8-1-17.1-3s-9.9-5-13.9-8.9c-3.9-3.9-7-8.8-9.3-14.7
		c-2.3-5.8-3.4-12.6-3.4-20.3c0-6,1-11.6,2.9-16.8s4.8-9.9,8.5-13.8s8.2-7,13.4-9.3c5.3-2.3,11.2-3.4,17.9-3.4
		c5.6,0,10.8,0.9,15.5,2.7c4.7,1.8,8.8,4.4,12.2,7.8c3.4,3.4,6.1,7.6,8,12.5c1.9,5,2.8,10.6,2.8,17c0,1.8-0.1,3.2-0.3,4.3
		c-0.2,1.1-0.5,2-0.9,2.7s-0.9,1.1-1.6,1.4s-1.6,0.4-2.6,0.4L1067.3,517.8L1067.3,517.8z M1104.2,503.8c0-2.4-0.3-4.8-1-7
		s-1.7-4.2-3.1-5.9c-1.4-1.7-3.2-3-5.4-4c-2.2-1-4.7-1.5-7.7-1.5c-5.6,0-10,1.6-13.2,4.8c-3.2,3.2-5.2,7.7-6.2,13.6H1104.2z"/>
	<path class="st0" d="M1183.5,469c6.6,0,12.6,1,17.9,3.1c5.4,2.1,10,5.1,13.9,9s6.8,8.6,8.9,14.2s3.1,11.8,3.1,18.8
		c0,7-1,13.3-3.1,18.8c-2.1,5.6-5.1,10.3-8.9,14.2c-3.9,3.9-8.5,6.9-13.9,9s-11.4,3.1-17.9,3.1c-6.6,0-12.7-1-18.1-3.1
		s-10-5.1-13.9-9s-6.8-8.7-9-14.2s-3.2-11.9-3.2-18.8c0-7,1.1-13.2,3.2-18.8c2.1-5.6,5.1-10.3,9-14.2c3.9-3.9,8.5-6.9,13.9-9
		C1170.8,470,1176.9,469,1183.5,469z M1183.5,541.7c6.7,0,11.7-2.3,14.9-6.9c3.2-4.6,4.8-11.5,4.8-20.6c0-9.1-1.6-15.9-4.8-20.5
		c-3.2-4.6-8.2-6.9-14.9-6.9c-6.9,0-11.9,2.3-15.1,6.9s-4.8,11.5-4.8,20.5c0,9.1,1.6,16,4.8,20.6
		C1171.6,539.4,1176.6,541.7,1183.5,541.7z"/>
</g>
</svg>
